Coordinates
version=1
nRows=19
nColumns=34
inDegrees=yes

Units are S.I. units (second, meters, Newtons, ...)
If the header above contains a line with 'inDegrees', this indicates whether rotational values are in degrees (yes) or radians (no).

endheader
time	pelvis_tilt	pelvis_list	pelvis_rotation	pelvis_tx	pelvis_ty	pelvis_tz	hip_flexion_r	hip_adduction_r	hip_rotation_r	knee_angle_r	ankle_angle_r	subtalar_angle_r	mtp_angle_r	hip_flexion_l	hip_adduction_l	hip_rotation_l	knee_angle_l	ankle_angle_l	subtalar_angle_l	mtp_angle_l	lumbar_extension	lumbar_bending	lumbar_rotation	arm_flex_r	arm_add_r	arm_rot_r	elbow_flex_r	pro_sup_r	arm_flex_l	arm_add_l	arm_rot_l	elbow_flex_l	pro_sup_l
      3.88333330	     -7.27216642	     -2.94710420	     -1.54876664	     -3.22854352	      0.94618617	     -0.07055965	     10.57044130	      6.69372100	      3.44493158	     43.01857455	     24.25873863	    -18.75686644	      0.00000000	     35.17494351	     -0.95812798	      0.95079110	     75.96949596	     16.33017033	     -9.01210411	      0.00000000	     -5.63308099	      2.34096285	     -5.03007265	     56.40566162	     -4.40906225	      9.66667528	    147.30666075	     92.36460774	      6.19791078	    -11.06379974	     -4.31127553	     27.96077171	     78.52517326
      3.90000000	     -7.54183991	     -2.28322826	     -1.91316116	     -3.19785897	      0.95609329	     -0.07378241	      7.22957770	      5.28119482	      3.59079350	     39.74165259	     23.34096561	    -17.22035257	      0.00000000	     38.51557548	     -0.61750725	      0.28046180	     73.94308409	     16.74382384	    -10.54145554	      0.00000000	     -5.27626872	      1.52126481	     -4.49852190	     55.24200900	     -4.71167353	      7.76211174	    148.14958942	     93.20039455	      4.58472048	    -11.72587506	     -6.47121236	     27.97980755	     78.61367088
      3.91666670	     -7.82605452	     -1.26377241	     -2.19596392	     -3.16750007	      0.96723549	     -0.07677430	      3.54674126	      3.43177917	      3.80091700	     35.43930818	     21.74573054	    -16.18930354	      0.00000000	     40.91161345	      0.05835112	     -0.49040410	     70.18025214	     16.45017115	    -12.26425471	      0.00000000	     -5.06030118	      0.37076198	     -4.36505543	     54.14764914	     -4.97379600	      6.85194770	    149.13147768	     93.60177279	      3.06204479	    -12.86036246	     -7.34047163	     28.02252181	     78.69309989
      3.93333330	     -8.07820188	     -0.05808269	     -2.66062889	     -3.13525450	      0.97983241	     -0.07836529	      0.02324231	      1.40539338	      4.22680401	     30.85136444	     19.67782937	    -14.82674428	      0.00000000	     42.27404142	      0.75663672	     -1.33987647	     64.78462624	     15.10342029	    -14.26441174	      0.00000000	     -4.86900655	     -1.01045577	     -4.21767760	     52.66440591	     -5.12440138	      5.66733706	    150.00035077	     93.96621539	      1.67715050	    -13.99939318	     -8.06914280	     28.46240890	     78.73023062
      3.95000000	     -8.14051445	      1.30545470	     -3.31390872	     -3.09998061	      0.99174128	     -0.07848900	     -3.35240322	     -0.79722677	      4.57953887	     26.73257990	     17.30665531	    -12.82643798	      0.00000000	     42.71470407	      1.49825533	     -2.06769721	     58.37831671	     12.88592867	    -16.24433329	      0.00000000	     -4.72178700	     -2.51483793	     -4.58187488	     51.16780367	     -4.50721655	      4.70363682	    150.00035077	     94.41938317	      0.03412220	    -15.28621621	     -8.83707231	     28.98011458	     78.67663809
      3.96666670	     -8.12445410	      3.03353558	     -4.04217040	     -3.06247117	      1.00133792	     -0.07831733	     -6.48692470	     -3.37646951	      4.52378994	     23.66021427	     15.31708716	    -10.34322582	      0.00000000	     42.41474081	      2.50214869	     -2.88316501	     51.48843349	     10.32329641	    -17.93723139	      0.00000000	     -4.28750082	     -4.42184013	     -5.09315947	     49.33329385	     -3.66671030	      3.84767366	    150.00035077	     94.90632595	     -1.67010244	    -16.67374927	     -9.61556036	     29.40714312	     78.48106710
      3.98333330	     -8.08364765	      4.99834388	     -4.76624038	     -3.02522354	      1.00661517	     -0.07924378	     -9.23773728	     -6.25325802	      3.89980799	     21.93547129	     13.58594241	     -7.42058162	      0.00000000	     41.74891383	      3.92634526	     -3.38371557	     44.99574339	      7.67608152	    -19.50609350	      0.00000000	     -3.57680865	     -6.55473186	     -5.58950938	     47.46069515	     -2.60947249	      2.38195442	    150.00035077	     95.58305469	     -3.28784831	    -18.07420673	    -10.49762299	     30.12184272	     78.04172602
      4.00000000	     -8.05913861	      6.75696822	     -5.48886363	     -2.98985807	      1.00863320	     -0.08118093	    -11.26033088	     -8.96903882	      3.41496585	     21.61732460	     12.32437589	     -5.67890577	      0.00000000	     40.97227229	      5.35067802	     -3.41262195	     39.43813910	      6.28710511	    -19.87394674	      0.00000000	     -2.62539275	     -8.43309935	     -5.93000468	     45.67136792	     -1.82819462	      0.14905781	    150.00035077	     96.25644526	     -4.65866643	    -19.38496956	    -11.29972804	     30.81767103	     77.40566207
      4.01666670	     -7.89451843	      7.75167542	     -6.18521554	     -2.95690098	      1.00919750	     -0.08390468	    -12.31617884	    -10.95036790	      3.75660452	     22.51854913	     10.67247642	     -5.61027052	      0.00000000	     40.01402282	      6.41569998	     -2.36338982	     34.93896214	      5.90560948	    -19.21001964	      0.00000000	     -1.90036667	     -9.40772146	     -6.17647801	     44.31444165	     -1.39386551	     -3.13540540	    150.00035077	     96.87585430	     -5.50619849	    -20.43791711	    -11.95872026	     31.56820563	     76.59264050
      4.03333330	     -7.51695784	      7.76664299	     -6.71367737	     -2.92445663	      1.00942399	     -0.08728338	    -12.39023617	    -11.84113462	      5.10037775	     24.68671973	      8.52371500	     -7.07854818	      0.00000000	     38.72769438	      6.86914576	     -0.33659101	     31.65767140	      6.20304923	    -17.94506414	      0.00000000	     -1.69229088	     -9.21491290	     -6.63227157	     43.59881679	     -1.33068844	     -7.03284976	    150.00035077	     97.39827708	     -5.65955211	    -21.11057734	    -12.33502457	     32.22633153	     75.67652240
      4.05000000	     -7.06381313	      7.29859060	     -7.04607249	     -2.89138540	      1.00905348	     -0.09091578	    -11.71214434	    -11.96903002	      6.96160411	     27.82177726	      6.49405183	     -8.89426744	      0.00000000	     37.24680813	      6.99792330	      1.94199681	     29.83695767	      6.65988385	    -16.76397698	      0.00000000	     -1.61038760	     -8.58518863	     -7.27712890	     43.01112789	     -1.52626367	    -11.36805273	    150.00035077	     97.88369357	     -5.19496940	    -21.86793203	    -12.40330064	     33.13070491	     74.61247641
      4.06666670	     -6.45273100	      6.54682306	     -7.21886499	     -2.85806345	      1.00785592	     -0.09451376	    -10.64219580	    -11.41514386	      8.83560713	     32.05190010	      3.87939754	    -10.40456483	      0.00000000	     35.48900821	      6.92917060	      3.98139397	     29.63742983	      7.27860353	    -15.80234759	      0.00000000	     -1.80371212	     -7.66044349	     -8.37880584	     42.81099795	     -1.78513924	    -15.63935007	    150.00035077	     98.13772335	     -4.32643317	    -22.80815808	    -12.22644210	     34.01445047	     73.78671116
      4.08333330	     -5.88009941	      5.82246746	     -7.28096304	     -2.82350191	      1.00512540	     -0.09780456	     -9.03913213	    -10.57926463	     10.19262378	     37.24979700	      0.86240914	    -10.79623685	      0.00000000	     33.42623756	      6.88551677	      5.33780850	     30.37633240	      8.32526775	    -14.95641149	      0.00000000	     -1.84155380	     -6.97338561	     -9.40008654	     42.13318927	     -2.64930334	    -20.66863688	    150.00035077	     98.33800740	     -2.77171760	    -23.81809595	    -11.93420767	     34.90129599	     72.89288856
      4.10000000	     -5.33255296	      5.15021576	     -7.30536491	     -2.78742918	      1.00160747	     -0.10074305	     -6.83509596	     -9.63978328	     10.91173699	     43.33964835	     -2.30819271	    -10.37511922	      0.00000000	     31.06381546	      6.94043485	      6.16055849	     31.54280127	      9.70423654	    -14.37856953	      0.00000000	     -1.79074348	     -6.43586392	    -10.32210661	     40.92413400	     -3.92101570	    -26.16381530	    150.00035077	     98.50751161	     -0.47196764	    -24.57114045	    -11.64508350	     34.93832931	     71.89186732
      4.11666670	     -5.03687950	      4.54160138	     -7.48798094	     -2.75118129	      0.99756222	     -0.10310888	     -3.80590930	     -8.76628348	     11.16642582	     49.49493509	     -5.03238992	     -9.98473041	      0.00000000	     28.71198801	      7.01136066	      6.61168067	     32.67163417	     11.39950470	    -14.54334303	      0.00000000	     -1.37733419	     -5.99164566	    -10.99869673	     39.07951523	     -5.40245646	    -32.15313744	    150.00035077	     98.63294414	      2.40073673	    -24.86622716	    -11.53010995	     34.06686045	     70.75602215
      4.13333330	     -5.01035281	      3.97025410	     -7.94710092	     -2.71526924	      0.99356282	     -0.10485245	     -0.19774992	     -7.99970746	     11.21273139	     55.24411695	     -6.21480581	    -10.05183202	      0.00000000	     26.51989048	      7.08270261	      6.89490904	     33.68363357	     13.54918340	    -15.08537167	      0.00000000	     -0.72269567	     -5.49721582	    -11.67338583	     37.02961040	     -6.66596930	    -38.31905159	    150.00035077	     98.68075029	      5.08165377	    -24.78967546	    -11.68600900	     33.11691787	     69.59623766
      4.15000000	     -5.05019151	      3.35240878	     -8.79417187	     -2.67884941	      0.99109915	     -0.10579422	      3.56629750	     -7.21954888	     11.22682634	     60.28210778	     -5.79255664	    -10.76197675	      0.00000000	     24.37869772	      7.01672363	      6.89996302	     34.74131919	     15.82836987	    -16.02006237	      0.00000000	     -0.24074601	     -4.87186494	    -12.10251038	     34.72637755	     -7.87214305	    -45.54519319	    150.00035077	     98.59607667	      7.56335897	    -24.18779425	    -12.04179284	     32.83836870	     68.33813468
      4.16666670	     -5.58845099	      2.79387927	     -9.94270577	     -2.64054271	      0.99024024	     -0.10637217	      7.79611301	     -6.42699909	     11.10361505	     64.20219968	     -5.21861534	    -11.87605967	      0.00000000	     22.44704912	      6.89317567	      6.79288963	     35.36526813	     18.31273115	    -16.92478063	      0.00000000	      0.76008423	     -4.02419752	    -13.07592119	     32.03514758	     -8.65180884	    -52.42354992	    150.00035077	     98.32597387	      8.61818961	    -23.49157857	    -12.43575366	     33.10732240	     67.53652707
      4.18333330	     -5.53906442	      1.78486998	    -11.46792874	     -2.60564072	      0.99263725	     -0.10743308	     11.47057944	     -5.08121718	     10.90968107	     67.07078218	     -4.36110838	    -13.36676465	      0.00000000	     19.68484276	      6.29029741	      6.41031543	     35.58382884	     20.19089676	    -17.60602077	      0.00000000	      0.42428532	     -2.96925403	    -11.74614549	     28.17271004	    -10.56823250	    -64.13498305	    150.00035077	     97.44173783	     13.30945540	    -21.39687778	    -12.72898253	     32.16925901	     66.43021526
